<mxfile host="app.diagrams.net" agent="Mozilla/5.0 (Windows NT 10.0; Win64; x64) AppleWebKit/537.36 (KHTML, like Gecko) Chrome/131.0.0.0 Safari/537.36" version="25.0.3">
  <diagram id="C5RBs43oDa-KdzZeNtuy" name="Page-1">
    <mxGraphModel dx="1167" dy="580" grid="1" gridSize="10" guides="1" tooltips="1" connect="1" arrows="1" fold="1" page="1" pageScale="1" pageWidth="827" pageHeight="1169" math="0" shadow="0">
      <root>
        <mxCell id="WIyWlLk6GJQsqaUBKTNV-0" />
        <mxCell id="WIyWlLk6GJQsqaUBKTNV-1" parent="WIyWlLk6GJQsqaUBKTNV-0" />
        <mxCell id="H7j_1TeBuzx17JUTJD7Y-9" value="" style="edgeStyle=orthogonalEdgeStyle;rounded=0;orthogonalLoop=1;jettySize=auto;html=1;" edge="1" parent="WIyWlLk6GJQsqaUBKTNV-1" source="WIyWlLk6GJQsqaUBKTNV-3" target="H7j_1TeBuzx17JUTJD7Y-1">
          <mxGeometry relative="1" as="geometry" />
        </mxCell>
        <mxCell id="WIyWlLk6GJQsqaUBKTNV-3" value="Application to Collector" style="rounded=1;whiteSpace=wrap;html=1;fontSize=12;glass=0;strokeWidth=1;shadow=0;" parent="WIyWlLk6GJQsqaUBKTNV-1" vertex="1">
          <mxGeometry x="350" y="80" width="140" height="40" as="geometry" />
        </mxCell>
        <mxCell id="H7j_1TeBuzx17JUTJD7Y-26" value="" style="edgeStyle=orthogonalEdgeStyle;rounded=0;orthogonalLoop=1;jettySize=auto;html=1;" edge="1" parent="WIyWlLk6GJQsqaUBKTNV-1" source="H7j_1TeBuzx17JUTJD7Y-11" target="H7j_1TeBuzx17JUTJD7Y-15">
          <mxGeometry relative="1" as="geometry" />
        </mxCell>
        <mxCell id="H7j_1TeBuzx17JUTJD7Y-55" value="" style="edgeStyle=orthogonalEdgeStyle;rounded=0;orthogonalLoop=1;jettySize=auto;html=1;entryX=0.5;entryY=0;entryDx=0;entryDy=0;" edge="1" parent="WIyWlLk6GJQsqaUBKTNV-1" source="H7j_1TeBuzx17JUTJD7Y-1" target="H7j_1TeBuzx17JUTJD7Y-12">
          <mxGeometry relative="1" as="geometry">
            <mxPoint x="570" y="160" as="targetPoint" />
          </mxGeometry>
        </mxCell>
        <mxCell id="H7j_1TeBuzx17JUTJD7Y-57" value="" style="edgeStyle=orthogonalEdgeStyle;rounded=0;orthogonalLoop=1;jettySize=auto;html=1;entryX=0.5;entryY=0;entryDx=0;entryDy=0;" edge="1" parent="WIyWlLk6GJQsqaUBKTNV-1" source="H7j_1TeBuzx17JUTJD7Y-1" target="H7j_1TeBuzx17JUTJD7Y-10">
          <mxGeometry relative="1" as="geometry">
            <mxPoint x="270" y="160" as="targetPoint" />
          </mxGeometry>
        </mxCell>
        <mxCell id="H7j_1TeBuzx17JUTJD7Y-1" value="Revenue Department" style="rounded=1;whiteSpace=wrap;html=1;fontSize=12;glass=0;strokeWidth=1;shadow=0;" vertex="1" parent="WIyWlLk6GJQsqaUBKTNV-1">
          <mxGeometry x="350" y="140" width="140" height="40" as="geometry" />
        </mxCell>
        <mxCell id="H7j_1TeBuzx17JUTJD7Y-5" style="edgeStyle=orthogonalEdgeStyle;rounded=0;orthogonalLoop=1;jettySize=auto;html=1;exitX=0.5;exitY=1;exitDx=0;exitDy=0;" edge="1" parent="WIyWlLk6GJQsqaUBKTNV-1" source="H7j_1TeBuzx17JUTJD7Y-1" target="H7j_1TeBuzx17JUTJD7Y-1">
          <mxGeometry relative="1" as="geometry" />
        </mxCell>
        <mxCell id="H7j_1TeBuzx17JUTJD7Y-41" value="" style="edgeStyle=orthogonalEdgeStyle;rounded=0;orthogonalLoop=1;jettySize=auto;html=1;" edge="1" parent="WIyWlLk6GJQsqaUBKTNV-1" source="H7j_1TeBuzx17JUTJD7Y-13" target="H7j_1TeBuzx17JUTJD7Y-14">
          <mxGeometry relative="1" as="geometry" />
        </mxCell>
        <mxCell id="H7j_1TeBuzx17JUTJD7Y-10" value="Mamlatdar" style="rounded=1;whiteSpace=wrap;html=1;fontSize=12;glass=0;strokeWidth=1;shadow=0;" vertex="1" parent="WIyWlLk6GJQsqaUBKTNV-1">
          <mxGeometry x="120" y="210" width="140" height="40" as="geometry" />
        </mxCell>
        <mxCell id="H7j_1TeBuzx17JUTJD7Y-40" value="" style="edgeStyle=orthogonalEdgeStyle;rounded=0;orthogonalLoop=1;jettySize=auto;html=1;" edge="1" parent="WIyWlLk6GJQsqaUBKTNV-1" source="H7j_1TeBuzx17JUTJD7Y-12" target="H7j_1TeBuzx17JUTJD7Y-18">
          <mxGeometry relative="1" as="geometry" />
        </mxCell>
        <mxCell id="H7j_1TeBuzx17JUTJD7Y-12" value="Mining" style="rounded=1;whiteSpace=wrap;html=1;fontSize=12;glass=0;strokeWidth=1;shadow=0;" vertex="1" parent="WIyWlLk6GJQsqaUBKTNV-1">
          <mxGeometry x="590" y="210" width="140" height="40" as="geometry" />
        </mxCell>
        <mxCell id="H7j_1TeBuzx17JUTJD7Y-48" value="" style="edgeStyle=orthogonalEdgeStyle;rounded=0;orthogonalLoop=1;jettySize=auto;html=1;" edge="1" parent="WIyWlLk6GJQsqaUBKTNV-1" source="H7j_1TeBuzx17JUTJD7Y-14">
          <mxGeometry relative="1" as="geometry">
            <mxPoint x="420" y="360" as="targetPoint" />
            <Array as="points">
              <mxPoint x="190" y="360" />
            </Array>
          </mxGeometry>
        </mxCell>
        <mxCell id="H7j_1TeBuzx17JUTJD7Y-14" value="Deputy Collector" style="rounded=1;whiteSpace=wrap;html=1;fontSize=12;glass=0;strokeWidth=1;shadow=0;" vertex="1" parent="WIyWlLk6GJQsqaUBKTNV-1">
          <mxGeometry x="120" y="310" width="140" height="40" as="geometry" />
        </mxCell>
        <mxCell id="H7j_1TeBuzx17JUTJD7Y-31" value="" style="edgeStyle=orthogonalEdgeStyle;rounded=0;orthogonalLoop=1;jettySize=auto;html=1;" edge="1" parent="WIyWlLk6GJQsqaUBKTNV-1" source="H7j_1TeBuzx17JUTJD7Y-16" target="H7j_1TeBuzx17JUTJD7Y-20">
          <mxGeometry relative="1" as="geometry" />
        </mxCell>
        <mxCell id="H7j_1TeBuzx17JUTJD7Y-15" value="Range Forest Officer" style="rounded=1;whiteSpace=wrap;html=1;fontSize=12;glass=0;strokeWidth=1;shadow=0;" vertex="1" parent="WIyWlLk6GJQsqaUBKTNV-1">
          <mxGeometry x="350" y="260" width="140" height="40" as="geometry" />
        </mxCell>
        <mxCell id="H7j_1TeBuzx17JUTJD7Y-17" value="Mining Officer" style="rounded=1;whiteSpace=wrap;html=1;fontSize=12;glass=0;strokeWidth=1;shadow=0;" vertex="1" parent="WIyWlLk6GJQsqaUBKTNV-1">
          <mxGeometry x="590" y="260" width="140" height="40" as="geometry" />
        </mxCell>
        <mxCell id="H7j_1TeBuzx17JUTJD7Y-53" value="" style="edgeStyle=orthogonalEdgeStyle;rounded=0;orthogonalLoop=1;jettySize=auto;html=1;" edge="1" parent="WIyWlLk6GJQsqaUBKTNV-1" source="H7j_1TeBuzx17JUTJD7Y-18">
          <mxGeometry relative="1" as="geometry">
            <mxPoint x="420" y="360" as="targetPoint" />
            <Array as="points">
              <mxPoint x="660" y="360" />
            </Array>
          </mxGeometry>
        </mxCell>
        <mxCell id="H7j_1TeBuzx17JUTJD7Y-18" value="Chief Officer Gandhinagar" style="rounded=1;whiteSpace=wrap;html=1;fontSize=12;glass=0;strokeWidth=1;shadow=0;" vertex="1" parent="WIyWlLk6GJQsqaUBKTNV-1">
          <mxGeometry x="590" y="310" width="140" height="40" as="geometry" />
        </mxCell>
        <mxCell id="H7j_1TeBuzx17JUTJD7Y-38" value="" style="edgeStyle=orthogonalEdgeStyle;rounded=0;orthogonalLoop=1;jettySize=auto;html=1;" edge="1" parent="WIyWlLk6GJQsqaUBKTNV-1" source="H7j_1TeBuzx17JUTJD7Y-20" target="H7j_1TeBuzx17JUTJD7Y-23">
          <mxGeometry relative="1" as="geometry" />
        </mxCell>
        <mxCell id="H7j_1TeBuzx17JUTJD7Y-20" value="Collector" style="rounded=1;whiteSpace=wrap;html=1;fontSize=12;glass=0;strokeWidth=1;shadow=0;" vertex="1" parent="WIyWlLk6GJQsqaUBKTNV-1">
          <mxGeometry x="350" y="440" width="140" height="40" as="geometry" />
        </mxCell>
        <mxCell id="H7j_1TeBuzx17JUTJD7Y-21" value="Getting Principal Letter for Paying Taxes" style="rounded=1;whiteSpace=wrap;html=1;fontSize=12;glass=0;strokeWidth=1;shadow=0;" vertex="1" parent="WIyWlLk6GJQsqaUBKTNV-1">
          <mxGeometry x="350" y="490" width="140" height="40" as="geometry" />
        </mxCell>
        <mxCell id="H7j_1TeBuzx17JUTJD7Y-22" value="Submit Paid Chalan in Collector Office" style="rounded=1;whiteSpace=wrap;html=1;fontSize=12;glass=0;strokeWidth=1;shadow=0;" vertex="1" parent="WIyWlLk6GJQsqaUBKTNV-1">
          <mxGeometry x="350" y="545" width="140" height="40" as="geometry" />
        </mxCell>
        <mxCell id="H7j_1TeBuzx17JUTJD7Y-39" value="" style="edgeStyle=orthogonalEdgeStyle;rounded=0;orthogonalLoop=1;jettySize=auto;html=1;" edge="1" parent="WIyWlLk6GJQsqaUBKTNV-1" source="H7j_1TeBuzx17JUTJD7Y-23" target="H7j_1TeBuzx17JUTJD7Y-25">
          <mxGeometry relative="1" as="geometry" />
        </mxCell>
        <mxCell id="H7j_1TeBuzx17JUTJD7Y-23" value="Collector to Stamp Duty for Verification of Challan" style="rounded=1;whiteSpace=wrap;html=1;fontSize=12;glass=0;strokeWidth=1;shadow=0;" vertex="1" parent="WIyWlLk6GJQsqaUBKTNV-1">
          <mxGeometry x="350" y="600" width="140" height="40" as="geometry" />
        </mxCell>
        <mxCell id="H7j_1TeBuzx17JUTJD7Y-24" value="Getting Final Collector Order" style="rounded=1;whiteSpace=wrap;html=1;fontSize=12;glass=0;strokeWidth=1;shadow=0;" vertex="1" parent="WIyWlLk6GJQsqaUBKTNV-1">
          <mxGeometry x="350" y="650" width="140" height="40" as="geometry" />
        </mxCell>
        <mxCell id="H7j_1TeBuzx17JUTJD7Y-25" value="Getting a Possession Certificate" style="rounded=1;whiteSpace=wrap;html=1;fontSize=12;glass=0;strokeWidth=1;shadow=0;" vertex="1" parent="WIyWlLk6GJQsqaUBKTNV-1">
          <mxGeometry x="350" y="710" width="140" height="40" as="geometry" />
        </mxCell>
        <mxCell id="H7j_1TeBuzx17JUTJD7Y-42" value="" style="edgeStyle=orthogonalEdgeStyle;rounded=0;orthogonalLoop=1;jettySize=auto;html=1;" edge="1" parent="WIyWlLk6GJQsqaUBKTNV-1" source="H7j_1TeBuzx17JUTJD7Y-15" target="H7j_1TeBuzx17JUTJD7Y-16">
          <mxGeometry relative="1" as="geometry">
            <mxPoint x="420" y="290" as="sourcePoint" />
            <mxPoint x="420" y="440" as="targetPoint" />
          </mxGeometry>
        </mxCell>
        <mxCell id="H7j_1TeBuzx17JUTJD7Y-16" value="Chief Conservator of Forests" style="rounded=1;whiteSpace=wrap;html=1;fontSize=12;glass=0;strokeWidth=1;shadow=0;" vertex="1" parent="WIyWlLk6GJQsqaUBKTNV-1">
          <mxGeometry x="350" y="310" width="140" height="40" as="geometry" />
        </mxCell>
        <mxCell id="H7j_1TeBuzx17JUTJD7Y-43" value="" style="edgeStyle=orthogonalEdgeStyle;rounded=0;orthogonalLoop=1;jettySize=auto;html=1;" edge="1" parent="WIyWlLk6GJQsqaUBKTNV-1" source="H7j_1TeBuzx17JUTJD7Y-1" target="H7j_1TeBuzx17JUTJD7Y-11">
          <mxGeometry relative="1" as="geometry">
            <mxPoint x="420" y="180" as="sourcePoint" />
            <mxPoint x="420" y="260" as="targetPoint" />
          </mxGeometry>
        </mxCell>
        <mxCell id="H7j_1TeBuzx17JUTJD7Y-11" value="Forest" style="rounded=1;whiteSpace=wrap;html=1;fontSize=12;glass=0;strokeWidth=1;shadow=0;" vertex="1" parent="WIyWlLk6GJQsqaUBKTNV-1">
          <mxGeometry x="350" y="210" width="140" height="40" as="geometry" />
        </mxCell>
        <mxCell id="H7j_1TeBuzx17JUTJD7Y-44" value="" style="edgeStyle=orthogonalEdgeStyle;rounded=0;orthogonalLoop=1;jettySize=auto;html=1;" edge="1" parent="WIyWlLk6GJQsqaUBKTNV-1" source="H7j_1TeBuzx17JUTJD7Y-10" target="H7j_1TeBuzx17JUTJD7Y-13">
          <mxGeometry relative="1" as="geometry">
            <mxPoint x="190" y="240" as="sourcePoint" />
            <mxPoint x="190" y="310" as="targetPoint" />
          </mxGeometry>
        </mxCell>
        <mxCell id="H7j_1TeBuzx17JUTJD7Y-13" value="Circle Officer" style="rounded=1;whiteSpace=wrap;html=1;fontSize=12;glass=0;strokeWidth=1;shadow=0;" vertex="1" parent="WIyWlLk6GJQsqaUBKTNV-1">
          <mxGeometry x="120" y="260" width="140" height="40" as="geometry" />
        </mxCell>
        <mxCell id="H7j_1TeBuzx17JUTJD7Y-45" value="Chief Officer Gandhinagar" style="rounded=1;whiteSpace=wrap;html=1;fontSize=12;glass=0;strokeWidth=1;shadow=0;" vertex="1" parent="WIyWlLk6GJQsqaUBKTNV-1">
          <mxGeometry x="350" y="380" width="140" height="40" as="geometry" />
        </mxCell>
      </root>
    </mxGraphModel>
  </diagram>
</mxfile>
